<?xml version="1.0" standalone="no"?>
<!DOCTYPE svg PUBLIC "-//W3C//DTD SVG 1.1//EN" "http://www.w3.org/Graphics/SVG/1.1/DTD/svg11.dtd" >
<!--
2013-9-30: Created.
-->
<svg>
<metadata>
Created by iconfont
</metadata>
<defs>

<font id="iconfont" horiz-adv-x="1024" >
  <font-face
    font-family="iconfont"
    font-weight="500"
    font-stretch="normal"
    units-per-em="1024"
    ascent="896"
    descent="-128"
  />
    <missing-glyph />
    
    <glyph glyph-name="danshizhongxin" unicode="&#58966;" d="M512.1 384.2m-447.9 0a447.9 447.9 0 1 1 895.8 0 447.9 447.9 0 1 1-895.8 0ZM445.6 334.1l-50.7-55c-5.8-6.3-15.6-6.7-21.9-0.9s-6.7 15.6-0.9 21.9l52.4 56.9-52.4 56.9c-5.8 6.3-5.4 16.1 0.9 21.9 3 2.7 6.8 4.1 10.5 4.1 4.2 0 8.4-1.7 11.4-5l50.7-55 24.1 26.1V521.4S392 536.7 311.5 465c-80.4-71.7-67.4-154.3-67.4-154.3v-63s2.2-56.5 50-56.5h125.5s50 8.1 50 63V360.3l-3-3.2-21-23zM523.5 430.7V597.6c0 8.6-6.9 15.5-15.5 15.5s-15.5-6.9-15.5-15.5v-166.9l-22.7-24.6v-45.8l38.2 41.5 38.2-41.5v45.8l-22.7 24.6zM704.3 465c-80.4 71.7-158.1 56.5-158.1 56.5v-115.4l24.1-26.1 50.7 55c5.8 6.3 15.6 6.7 21.9 0.9 6.3-5.8 6.7-15.6 0.9-21.9l-52.5-57 52.4-56.9c5.8-6.3 5.4-16.1-0.9-21.9-3-2.7-6.8-4.1-10.5-4.1-4.2 0-8.4 1.7-11.4 5l-50.7 55-21.1 22.9-3 3.2v-106.1c0-54.9 50-63 50-63h125.5c47.8 0 50 56.5 50 56.5v63c0.1 0.1 13.1 82.7-67.3 154.4z"  horiz-adv-x="1024" />

    
    <glyph glyph-name="qiangneixieguanyilianti" unicode="&#58978;" d="M65.8 384.6a449.3 447.3 90 1 1 894.6 0 449.3 447.3 90 1 1-894.6 0ZM628.3 360.3c-24-30.5-62.6-50-98.1-50-2.5 0-4.9 0.1-7.4 0.3-5 0.4-8.7 4.8-8.3 9.8s4.8 8.7 9.7 8.3c31.6-2.5 67.8 14.7 89.9 42.8 22.4 28.5 28.1 64.9 16 102.6-16.2 50.3-57.1 71.4-90 74.5-37.7 3.5-71.6-13.6-88.3-44.7-16-29.5-17.1-61-3.3-88.5 12.6-25 36.7-43.9 60.1-47.1 25.7-3.6 51.3 4.8 68.4 22.2 16.1 16.5 23 38.9 19.2 63-3.3 21.4-13.1 38.2-28.3 48.5-16.1 10.9-34 12-45.4 9.4-13-3-29.6-13.4-37.6-29.9-7.1-14.7-6.3-31.5 2.4-49.9 13-27.7 36.6-25.1 43.5-23.6 13.7 2.9 28.7 13.8 29.2 31 0.4 14.5-4.9 26-14.6 31.4-8.2 4.6-18.1 4.1-25.9-1.1-3.3-2.2-5.5-4.6-7.2-7.2 0.4 0 0.8 0.1 1.3 0.1 12.2 0 22.1-9.9 22.1-22.2 0-12.2-9.9-22.2-22.1-22.2-11.9 0-21.5 9.5-22 21.3-2.4 12.8-0.9 32.8 17.9 45.2 13.5 9 30.6 9.7 44.7 1.8 15.8-8.8 24.5-26.3 23.9-47.8-0.7-23.2-18.6-43-43.6-48.2-21-4.4-48.8 2.1-63.6 33.6-13.8 29.5-8.9 51.9-2.3 65.6 11.3 23.4 33.9 36 49.8 39.7 19.5 4.5 41.8 0 59.6-12 13.6-9.2 30.9-27.3 36.1-60.8 4.6-29.9-4-57.8-24.2-78.5-21.1-21.6-52.4-31.9-83.8-27.5-29.5 4.1-58.4 26.4-73.8 56.9-16.6 33-15.4 70.4 3.5 105.3 20.3 37.6 60.9 58.3 105.9 54.1 49.3-4.6 89.8-37.9 105.6-87 14-43.4 7.2-85.8-19-119.2z m77.1 188c-25.9 42.4-67.1 74.3-115.9 88.2-17.4 4.9-35.7 7.6-54.6 7.6-110.5 0-200-90-200-200.9 0-3.6 0.1-7.2 0.3-10.8-0.1-2.8-0.1-5.1 0-6.8L286 341.9c-2.1-3.5-2.1-7.9-0.1-11.5s5.8-5.8 9.9-5.8h41.9v-59.9c0-51.7 46.8-72.6 66.3-72.6h65.7v-47.2c0-6.3 5.1-11.5 11.4-11.5h175.1c6.3 0 11.4 5.1 11.4 11.5V293c9.6 8.5 18.3 18 26.1 28.2 9.2 12.1 17 25.2 23.3 39.2 11.4 25.3 17.8 53.3 17.8 82.8 0.1 38.6-10.7 74.6-29.4 105.1z"  horiz-adv-x="1024" />

    
    <glyph glyph-name="jizhenzhuankeyilianti" unicode="&#58985;" d="M512.3 384.2m-448.1 0a448.1 448.1 0 1 1 896.2 0 448.1 448.1 0 1 1-896.2 0ZM496.8 442.8c0.1 16-11.5 28.4-27.1 28.7-16.3 0.4-29-11.8-29.2-28-0.3-15.8 12.5-28.9 28.4-29.1 14.5-0.1 27.7 13.3 27.9 28.4zM592.5 168c13.9-6.2 25-9.1 34.6-15.6 8.9-6.1 11.9-13.7 8.3-23.6-3.6-9.9-7.6-18.6-21.3-18.5-78.4 0.4-156.8 0.4-235.2 0.1-17.8-0.1-26.5 11.7-34 24.3-23.8 40.1-30.4 84.1-26.6 129.9C324 331 352.5 387.2 396.7 436c4.2 4.7 6.5 9.4 7.3 15.7 2.6 19.6 12.2 35.2 29 45.8 6.2 3.9 6.7 7.6 2.9 13.5-5.5 8.7-10.6 17.8-15.6 26.8-5.8 10.4-4.2 17 6.1 23 27.8 16.2 55.7 32.3 83.8 48.2 12.3 6.9 17.1 5.6 24.3-6.8 32.7-56.4 65.1-113 98-169.4 4.7-8.1 1.8-14.8-2-21.2-5-8.4-7-16.4-2.3-25.7 1.9-3.8 2.2-8.4 3.1-12.7 1.6-7.9-0.5-13.6-8.4-17.5-11.7-5.9-23-12.7-34.2-19.6-6.2-3.9-11.1-3-15.9 2-1.6 1.7-3.8 3.1-5.1 5-8.3 12.1-18.9 18.2-34.1 16-11-1.6-15.2 7.2-18.7 15.3-4.7 10.7-9.8 14.4-22.1 8.5-18.6-8.9-38.1-6.8-56.1 3.6-5.6 3.2-9.5 4.3-14.2-1.5-46-57.3-32-154.9 41.5-181.6 42.3-15.4 83.7-12.2 120.9 16.3 6.1 4.7 11.9 10 14.9 16.8 4.9 11 13.8 16.7 23.7 22.1 16.8 9.1 33 19.1 49.6 28.6 3.2 1.8 6.5 6.1 10.6 3.2 3.6-2.5 2.6-7.3 2.4-11.2-1.9-29.8-16.7-53.5-36-74.8-15-16.2-32.7-28.7-57.6-36.4zM714.1 331.9c0.2-4.4-3.1-6.1-6.2-7.9-45.8-26.4-91.7-52.6-137.3-79.2-11.9-6.9-12.9 3.9-17.3 9.5-5.2 6.7-3 10.8 4.2 14.8 44.5 25.4 88.8 51.2 133.2 76.8 10.3 6.1 22.9-1.5 23.4-14zM495.1 634.3c0.9-5.3-3-7.5-6.9-9.7-21-12.1-41.9-24.2-62.9-36.2-9.1-5.2-19.7 0.1-26.9 13.2-5.1 9.3-1.4 15.8 7 20.7 18.9 10.9 37.7 21.9 56.6 32.7 20.1 11.4 33.2 3.3 33.1-20.7z"  horiz-adv-x="1024" />

    
    <glyph glyph-name="chanke" unicode="&#59059;" d="M511.6 383.9m-448.2 0a448.2 448.2 0 1 1 896.4 0 448.2 448.2 0 1 1-896.4 0ZM424.1 560.7a91.7 90 90 1 1 180 0 91.7 90 90 1 1-180 0ZM576.2 253c-30 0-54.3 24.8-54.3 55.3 0 30.5 24.3 55.3 54.3 55.3 30 0 54.3-24.8 54.3-55.3 0.1-30.6-24.3-55.3-54.3-55.3z m70.4 153.7s-20.9 40.7-63.6 40.7H428.7s-28.1 2.8-47.2-28.7c-16.9-27.8-52.7-89.7-62.2-142.4S327.5 175.2 371 153c43.6-22.2 77.6-33.3 130.7-30.5 13.2 0.5 52.2 15.3 49.5 47.6-2.7 32.4-42.7 33.3-42.7 33.3S396 213.5 395.1 233.9c0 4.6 61.7-4.6 62.6 22.2 0.9 26.8-25.4 49.9-5.4 64.7 20 14.8 30-11.1 51.8-43.4 21.8-32.4 40.9-35.1 74.4-38.8 0 0-30-30.5-19.1-50.8 10.9-20.3 36.3-30.5 77.2-7.4 40.9 23.1 69 64.7 69 101.7 0 36.8-59 124.6-59 124.6z"  horiz-adv-x="1024" />

    
    <glyph glyph-name="chuanranke" unicode="&#59060;" d="M511.8 386.3m-447.6 0a447.6 447.6 0 1 1 895.2 0 447.6 447.6 0 1 1-895.2 0ZM716.8 474.8c-56.2-17.1-212.2-72-231-74.8-47-2.9-99.1 0.8-147.9 0-37.9-53.7-10.5-141.5 23.4-181.6 31.2 1.2 103-1.9 127.2 0 30.5 4.1 160.3 43 192.1 53.4 2.3-24.1 0.9-97 2.6-144.3-63.4 0.3-167.5-0.7-223.2 0-1.2 18.3 2.5 42.2-8.9 49.6-17.6 11.6-47.2 4.9-71.6 6.5-14.6 9.3-15.6 19.1-33.7 21.4-40.2 42.5-69.6 173.7-10.4 219 12 22.7 7 42 10.4 74.8 11.2 109.9 110.1 159.6 215.3 147 90.5-10.8 143-71.1 155.7-171zM716.8 461.5c11.8-71.9-38.7-99-37.4-176.3-63.6-18.2-124.6-35.4-188.4-53.4-2.9 47.2-2.6 107.6-2.6 154.9 73.9 27.3 149.6 52.6 228.4 74.8z"  horiz-adv-x="1024" />

    
    <glyph glyph-name="fuke" unicode="&#59061;" d="M511.3 384.2m-447.9 0a447.9 447.9 0 1 1 895.8 0 447.9 447.9 0 1 1-895.8 0ZM509.4 179.5c-77.8 0-148.5 87-168.8 171.8 5.7-0.4 12.7-0.7 20.8-0.7 54 0 157.9 12.8 253.9 97.4 10.7-25.7 30.8-57.2 67.4-71.6-10.7-91.9-87.6-196.9-173.3-196.9z m134.3 437.9c-9.5 3.9-132 51.6-240.2 1.9-64.6-29.7-109.8-87.2-134.3-171-33.9-116-35.4-189.6-4.8-238.5 31.8-50.9 93.4-67.5 164.7-82.6 1.7-0.4 3.3-0.5 4.9-0.5 2.1 0 4.2 0.4 6.2 0.9 1.4-0.4 2.9-0.7 4.5-0.7 8.4 0 15.2 6.5 15.2 14.6v17.9c16-5.9 32.6-9.1 49.6-9.1 24.9 0 48.9 7 71.3 18.9v-27.7c0-8.1 6.8-14.6 15.2-14.6 2.3 0 4.4 0.5 6.4 1.4 3.3-0.6 6.7-0.7 10.1 0.2 62.7 15.4 111.4 57.7 140.7 122.5 21.4 47.4 25 90.3 25.1 91.8 19.1 212-123 270.2-134.6 274.6zM522.1 288h-25.3c-8.4 0-15.2-6.5-15.2-14.6s6.8-14.6 15.2-14.6h25.3c8.4 0 15.2 6.5 15.2 14.6s-6.8 14.6-15.2 14.6z"  horiz-adv-x="1024" />

    
    <glyph glyph-name="jianyanke" unicode="&#59062;" d="M511.8 384.6m-447.6 0a447.6 447.6 0 1 1 895.2 0 447.6 447.6 0 1 1-895.2 0ZM491.6 441c0.1 15.4-11.4 27.3-26.7 27.6-16.1 0.3-28.6-11.3-28.8-26.9-0.3-15.2 12.3-27.8 28-28 14.3-0.2 27.3 12.8 27.5 27.3zM586 176.4c13.7-6 24.7-8.7 34.1-15 8.7-5.9 11.8-13.2 8.2-22.7-3.6-9.5-7.5-17.9-21-17.8-77.3 0.4-154.7 0.4-232 0.1-17.5-0.1-26.2 11.3-33.6 23.4-23.5 38.6-30 81-26.2 125.1 5.6 64 33.7 118.1 77.3 165.2 4.1 4.5 6.4 9.1 7.3 15.1 2.6 18.8 12 33.9 28.6 44.2 6.2 3.8 6.6 7.4 2.9 13-5.5 8.4-10.5 17.1-15.4 25.8-5.7 10-4.2 16.3 6 22.1 27.4 15.6 55 31.1 82.7 46.4 12.1 6.7 16.9 5.4 23.9-6.5 32.3-54.3 64.3-108.9 96.7-163.1 4.7-7.8 1.7-14.2-2-20.4-5-8.1-6.9-15.8-2.3-24.7 1.9-3.7 2.2-8.1 3.1-12.2 1.6-7.6-0.5-13.1-8.3-16.9-11.5-5.7-22.7-12.2-33.7-18.8-6.2-3.7-11-2.9-15.7 1.9-1.6 1.7-3.7 3-5 4.8-8.1 11.6-18.7 17.5-33.7 15.4-10.9-1.5-15 7-18.5 14.7-4.6 10.3-9.7 13.9-21.8 8.2-18.4-8.6-37.6-6.6-55.3 3.4-5.5 3.1-9.4 4.1-14-1.4-45.4-55.2-31.5-149.2 40.9-174.9 41.7-14.8 82.6-11.8 119.3 15.7 6 4.5 11.7 9.6 14.7 16.2 4.9 10.6 13.6 16.1 23.4 21.3 16.6 8.8 32.6 18.4 49 27.5 3.2 1.8 6.4 5.9 10.4 3.1 3.5-2.4 2.6-7 2.3-10.8-1.9-28.7-16.5-51.5-35.5-72-14.7-16-32.2-28-56.8-35.4zM706 334.2c0.2-4.2-3.1-5.9-6.1-7.6-45.2-25.4-90.4-50.7-135.5-76.3-11.7-6.7-12.7 3.8-17 9.1-5.2 6.5-2.9 10.4 4.1 14.3 43.9 24.5 87.6 49.3 131.4 74 10.2 5.9 22.6-1.5 23.1-13.5zM489.9 625.5c0.9-5.1-3-7.2-6.8-9.3-20.7-11.6-41.3-23.3-62.1-34.8-9-5-19.4 0.1-26.5 12.7-5.1 9-1.4 15.2 6.9 19.9 18.6 10.5 37.2 21.1 55.9 31.5 19.8 10.9 32.7 3 32.6-20z"  horiz-adv-x="1024" />

    
    <glyph glyph-name="jizhenke" unicode="&#59063;" d="M511.3 384.2m-447.9 0a447.9 447.9 0 1 1 895.8 0 447.9 447.9 0 1 1-895.8 0ZM464.179349 432.605183a5 5 0 1 1 9.871 1.601051 5 5 0 1 1-9.871-1.601051ZM594.9 408.4c-15.3-25-60.5-23.9-73.9-23.3-13.4 0.6-39.7-8.6-41.6-22.7-1.8-14.1 18.5-23.4 18.5-23.4l0.5-20.4s-9-0.5-15.9 2.8c-6.8 3.2-35.4 20.2-26.3 50.9 5.1 17.2 27.3 26.6 47.6 31.7l-1.2 110.4c0 0.1 0.1 0.2 0.2 0.2-4.4 4-7.3 10.1-7.3 16.9 0 11.9 8.7 21.6 19.3 21.6 10.6 0 19.3-9.7 19.3-21.6 0-6.7-2.7-12.7-7.1-16.7l-2.3-106.9c6.8 0.9 12 1.2 14.4 1.2 10.4 0 29.3 3.7 31.2 27.6 1.8 23.9-36.8 26.5-36.8 26.5l0.7 19.6s13.6 1 28-3c29.4-8.2 50.3-42.5 32.7-71.4z m-90.8-34.7h20l-1.8-84.4H505l-0.9 84.4zM524 272.2c-17.1-0.6-24.8-10.4-24.8-10.4l0.7-25.2s-2 0.3-4.2 0.9c-6 1.6-10 3.1-12.2 9.7-1.5 4.5-1.6 10.8 1 18.3 6.4 17.9 51.7 19.5 57.8 31.1 6.1 11.7-13.6 14.7-13.6 14.7l1.5 19.1s34.1-8.6 34.1-31.4c0-19.4-23.2-26.2-40.3-26.8z m39.4-64.8c-0.1-0.9-14.9 27.1-36.7 29.6l1.1 25s6.5-2.8 14.4-7.8c17.6-11.1 23.9-25.3 21.2-46.8z m-43.7-38c-0.1 0-0.1-0.1 0 0-0.1-2.5-3.1-4.4-6.7-4.4-3.3 0-6.1 1.6-6.6 3.7h-0.1l-1 93.3h16.4l-2-92.6z m-89.2 252.5c-4.3 1.2-5.5 15.3-1.2 20.3 4.3 4.9 9.2 18.4 17.7 23.3 8.5 4.9 26.3 8 31.8 8.6 5.5 0.6 16.5 8.6 16.5 8.6l0.3-19s-17.4-15.3-32.1-24.5c-14.7-9.3-28.8-18.5-33-17.3z m227.9-45.5l122.4 74-75.7 126.2L587 505.2V643.6H440.2v-141.5l-122.3 70.4-73.1-127.8 124-71.4-122.4-74 75.7-126.2 118.1 71.4v-138.4H587V247.6l122.3-70.4L782.4 305l-124 71.4z"  horiz-adv-x="1024" />

    
    <glyph glyph-name="meirongjianfeike" unicode="&#59064;" d="M512.1 383.5m-447.9 0a447.9 447.9 0 1 1 895.8 0 447.9 447.9 0 1 1-895.8 0ZM612.9 652.2s-10-64.6 10.5-115.2c21.5-53.1 67.8-137.9 67.8-236.1s-78.5-186.1-182-186.1c-74.9 5.2-98.3 37.5-98.3 37.5s12.7 54.6 46.6 44.3c33.9-10.3 113.3-45.7 116.8-4.3 3.6 41.4-7.8 40.2 16.2 55 4.3 7 5.2 13.9-5.5 19.1 16.1 5.2 16.9 17.2 7.1 21.5-9.8 4.3 0 20.7 16.1 27.6 16.1 6.9 25 16.4 3.6 37.9s-38.4 42.2-30.3 44.8c8 2.6 16.9-6 25 1.7 0 0-38.4 4.3-25.9 25s27.1 57.7-37.8 156.4c0 0-193.4-99.2-209.4-279 0 0-25.3 218.2 279.5 349.9z"  horiz-adv-x="1024" />

    
    <glyph glyph-name="mazuike" unicode="&#59065;" d="M512 384.2m-448 0a448 448 0 1 1 896 0 448 448 0 1 1-896 0ZM775.7 509.5c-4.4-4.5-11.6-4.5-16 0L639 632.6c-4.4 4.5-4.4 11.8 0 16.3s11.6 4.5 16 0l120.8-123.1c4.3-4.5 4.3-11.8-0.1-16.3zM713.8 402.6c-4.4-4.5-11.6-4.5-16 0L534.1 569.5c-4.4 4.5-4.4 11.8 0 16.3s11.6 4.5 16 0L713.8 419c4.4-4.6 4.4-11.9 0-16.4zM486.8 217.9c-13.5-13.8-35.4-13.8-48.9 0l-85 86.6c-13.5 13.8-13.5 36.1 0 49.9 13.5 13.8 35.4 13.8 48.9 0l85-86.6c13.5-13.8 13.5-36.1 0-49.9zM671.8 437.9l-85-86.6-103 105 85 86.6-15.5 15.8-200.9-204.8 133.9-136.5 200.9 204.8zM352.732 261.735l31.466 31.466 42.921-42.921-31.466-31.466zM601.385 508.58l88.387 88.388 36.063-36.062-88.388-88.387zM358 257.2L251.6 117.3l139.9 109.3z"  horiz-adv-x="1024" />

    
    <glyph glyph-name="nanke" unicode="&#59066;" d="M511.3 384.1m-448 0a448 448 0 1 1 896 0 448 448 0 1 1-896 0ZM610.3 382.7h-60.6c-7.6 0-13.7-6.2-13.7-13.8 0-7.6 6.1-13.8 13.7-13.8h60.6c7.6 0 13.7 6.2 13.7 13.8 0 7.6-6.1 13.8-13.7 13.8z m36.4-116.6c-32.1-56.2-82-99.8-135.3-99.8-53.1 0-102.7 43.2-134.8 99V412.5c0 13.1 10.6 23.7 23.6 23.7h222.9c13 0 23.6-10.7 23.6-23.7v-146.4z m22.5 317.1c-11.1 24.2-34.1 52.7-42.2 62.4-6.6 7.9-18 9.7-26.6 4.2-32-20.1-127.2-64.7-201.8-66.4-31.2-0.7-56-10.7-73.8-29.7-26.1-28-26.4-65.6-26.2-71v-90.5c0-57.5 22.5-123.1 60.2-175.4 15.7-21.7 32.9-39.9 51.1-54.1v-30c0-9.5 7.7-17.2 17.1-17.2 9.5 0 17.1 7.7 17.1 17.2V141c21.7-10.6 44.3-16.2 67.2-16.2s45.5 5.6 67.2 16.2v-8.5c0-9.5 7.7-17.2 17.1-17.2 9.5 0 17.1 7.7 17.1 17.2v30c18.3 14.3 35.5 32.4 51.1 54.1C701.5 269 724 334.6 724 392V521c0.1 35.1-21.1 58.7-54.8 62.2zM524.1 267.4h-11.9V368.9c0 7.6-6.1 13.8-13.7 13.8h-87.3c-7.6 0-13.7-6.2-13.7-13.8 0-7.6 6.1-13.8 13.7-13.8h73.6v-101.5c0-7.6 6.1-13.8 13.7-13.8h25.6c7.6 0 13.7 6.2 13.7 13.8 0 7.6-6.1 13.8-13.7 13.8z"  horiz-adv-x="1024" />

    
    <glyph glyph-name="jingshenke" unicode="&#59067;" d="M510.1 384.6m-446.8 0a446.8 446.8 0 1 1 893.6 0 446.8 446.8 0 1 1-893.6 0ZM688.4 494.5c-28.4 3.1-79.7 8.3-92.1-17-11.9-24.3-4.1-55 14.9-62.5 27.8-11.1 59.2 1 71.3 5.7-18.3-9.7-39.7-11.7-38.1-20.7 0.5-14.3 25.5-21.5 29.1-24.8-28.7 10.4-31.3 15.1-41.6 8.5-10.5-6.7-10.4-26.7-11.9-34.1 0 12.3 1.3 23.3-2.8 35-20.7 59.2-121.2 24-101.2-60.6 10.7-63.9 65.1-59.6 74.3-59.7 16.8-2.7 9.9 29.3 18.2 40 1.1-8.6 0.6-21.1 5.6-25.8 9.8 4.8 18.1 16.7 17.8 31.2 3.4-11.5-4.7-20.3 0.6-22 4-1.3 13.7-0.2 20.3-3.2-15.9 2-26.7-5.1-26.5-11.3 1.4-5.8 5.7-4.1 16.7-5.9-6.8-0.2-10.8-2.3-12.5-5.9-0.8-7.4 13.5-7.4 19.2-8.6-5.7-0.8-20.5-2.4-29.2-0.6-32.6 6.9-49.9-2.8-80.1 10.8-31.3 16.5-52.8 80.7-30.4 123.4-11.5 53-102 30.6-92.2-25.6-10 10.6 4.3 25.4-5.9 34.1-13.3-0.6-25.4-8.1-29.7-11.4 9.7 12.3 31.4 13.8 29.7 25.6-2.5 6.7-7.3 4.1-29.7 11.4 26.7 1 60.7-5 71.3 11.4 8.7 55.4-46.4 26-71.3 19.9 13.6 9.1 23.5 11.3 23.8 17-1.5 12.3-23.8 6.1-41.6 8.5 17.5 3 37.8 4.5 40.6 10.4 1.5 6.2-2.7 11.5-13.9 23.8 5.7-0.5 30.6-33.2 65.4-31.3 25.1 38-20.2 56-53.5 56.8 11.1 1.6 33.8-3.6 36.1 6.9 0.8 8.6-16.8 19.2-18.3 35.8 5.1-9.4 6.6-15.1 15.8-15.3 8.8 3 10.8 12.9 11 23.9 3.4-20.5 1.6-22.8 5.9-36.9 12.4-39.9 77.9-50.2 71.3-2.8-2.4 17.2-18.4 28.7-23.8 34.1 18.6-13.1 23.4-20.8 29.7-17.1 6.4 2.6-0.7 16 3 31.3 2.3-15.1 3.4-23.6 7.6-25.5 6.2-1.6 7.1 2.1 25.1 14.1-8.4-9.9-16.8-18.4-20.9-30.7-12.9-38.7 32.1-62.4 74.4-48.9 24.8 7.9 31 23 38.7 51.2-1.5-18.7-8.4-35 0-39.8 9.7-5.6 27.7-1.4 41.6 0-15.8-6-31.3-6.8-32.4-11.7-1.5-7 13.1-6.9 20.6-11.1zM566.5 639.4c-109 12.8-214.1-35.7-231.9-133.6-5.2-28.4-0.4-53.3-5.9-73.9-9.4-34.8-46.2-54.9-41.6-96.6 1.9-17 35.6-9.6 47.6-19.9-3.6-11.7-20-15.4-14.8-31.3 3.5-10.6 24.2-7.2 29.7-17.1-3-9.4-16.4-8.9-14.9-22.7 18.4-4.2 12.2-25.3 17.8-48.3 6.1-25.2 62.4-4.1 92.2-11.4 15.8-3.9 9.2-40.6 5.9-56.8 59.8-0.3 173-0.3 232.1 0 1.8 61.2-15.2 138.1 31.6 212.3 56.4 134.6-17.1 284-147.8 299.3z"  horiz-adv-x="1024" />

    
    <glyph glyph-name="neike" unicode="&#59068;" d="M513.6 384m-447.8 0a447.8 447.8 0 1 1 895.6 0 447.8 447.8 0 1 1-895.6 0ZM276.8 301.2c5.5 6 13.8 7.5 19.3 1.5s6.9-15 1.4-21.1c-12.4-16.5-23.5-45.1-24.9-70.7-1.4-28.6 8.3-57.2 22.1-69.2 5.5-6 6.9-15 1.4-21.1-5.5-6-13.8-7.5-19.3-1.5-20.7 19.6-33.1 57.2-31.8 93.3 2.8 33.1 15.2 67.7 31.8 88.8z m194.7 341.5c2.8 7.5 9.7 12 18 9s11-10.5 8.3-19.6c-12.4-40.6 15.2-120.4 47-130.9 6.9-3 11-10.5 8.3-19.6-2.8-7.5-9.7-12-18-9-47 18.1-80.2 115.9-63.6 170.1zM679.8 497.4c42.1-44.7 46.3-122.1 26.7-165.3-2.8-6 0-11.9 4.2-14.9s11.2 0 14 4.5c23.9 52.1 19.7 138.5-29.5 192.1-4.2 4.5-11.2 4.5-15.4 0-4.2-6-4.2-11.9 0-16.4z m-49.1 111.7c98.3 0 182.6-148.9 140.4-297.8C729 162.3 590 117.7 519.8 132.6c-70.2 14.9-99.7 44.7-141.8 74.5-42.1 29.8-70.2 29.8-112.3 29.8-28.1 0 28.1 129.6 126.4 132.5 56.2 1.5 84.3-43.2 112.3-13.4 28.1 29.8 0 77.4 0 119.1-1.5 65.5 32.2 134 126.3 134z"  horiz-adv-x="1024" />

    
    <glyph glyph-name="pifuke" unicode="&#59069;" d="M511.8 383.3m-448.5 0a448.5 448.5 0 1 1 897 0 448.5 448.5 0 1 1-897 0ZM551.9 652.3c46.7-22.5 88-50.6 132-76-45.9-53.6-103.7-94.7-126.4-172.6-10 2.5-20.1 7.5-33.3 2.1-7.5-3-11.4-14.8-14.4-19.7-7.8 3.6-25.8 14.3-38.8 21.3 3.3 5.5 11.5 14.3 11.4 26.9-0.1 11.5-15 23.3-17.5 24.9 35.1 58 71.4 114.8 87 193.1zM481.9 384.4c0.9-0.7 3.4-2.5 5-5.8 1.1-4 1.2-6.1 1.2-9.8-0.2-28.7-33.1-46.4-70.9-44.2-48.3 2.8-113.6 29-151.6 42.8-4.1 1.5-7 2.4-10.3 4.6-2 1.9-4.3 3.9-4.9 7.8-0.1 5.5 0.1 12 1.7 17.7 0.2 0.8 1 3.8 2.5 6.2 1.3 2 2.5 4.4 5.1 6.3 3.5 2.6 6.6 2.2 10 2 43.8-1.6 124.9-36.7 181.3-40.5 8.9 3 13.6 10.5 22.5 13.5 3 1 5.3 1 8.4-0.6zM363.8 239.8c13.6 3 7.3 29.9-6.7 23.4-7.3-4.9-6.8-24.1 6.7-23.4z m-39.3 5.9c12.3-9.9 28.5 7.2 19.7 20.5-11.8 11.8-26.7-7.8-19.7-20.5z m55.4 28.2c-4.5-5-3-13.9 0.8-19.5 10.9-10.5 30.2 8.9 19.7 20.5-6.7 7.4-14.9 4.8-20.5-1z m-83.5-10.7c2.5-5.1 17.2-5.1 19.7 0 9.9 21-31.9 24.9-19.7 0z m109.5 14.7c8.8-4.2 20.6 2 15.2 14.6-2.3 5-11.8 6.8-16 0.6-3.9-5.9-2.4-11.8 0.8-15.2z m-73.9 8.2c2.3-5.7 14.8-8.2 20.6-2.4 5.4 5.4 2 18.2-2.8 20.5-12.2 5.6-22.8-5.8-17.8-18.1z m-54.4 1.2c2.7-5.3 16.6-6.3 18.8-0.7 1.8 4.5 2.1 10.3 0 14.6-5.8 12.2-25.5-0.5-18.8-13.9z m100.3-3.6c4.5 1.4 9.8 5.5 8.4 11.7-8.9 19.6-28.8-12.7-8.4-11.7z m-58.8 17.2c7.8 0.3 10.7 4.7 10 12-9.1 19.2-37-9.5-10-12z m-48.8 13.7c6.9-2.8 13.5-2.2 15.8 2.8 6.1 13.4-3.4 21.7-16 15.6-4.9-2.5-4.9-16.3 0.2-18.4z m433.3-112.8c-35 23-114.7 15-165.7 11.7-4.1-27.3 31.1-19.9 53.3-20.5 19.4-0.5 40.5 0 58.8 0.1 6 0 10.8 0.3 15.7-1.9 2.7-1.2 5.4-2.7 7-5 10.4-15.1 10.9-33.8-0.1-48.6-1.6-2.1-3.4-3.8-6-4.9-2.6-1.1-5.2-1.5-8.1-1.7-60.8-3-132.1-5.9-189.6-0.7-11.2 1-19.2 0-28.4 4.7-5.1 2.6-12.8 7.1-18.4 10.5-54.4 33.1-168.4 39.1-187.4 45.2 0.3 34.5 2.6 147 2.8 163.1 2.5 1.8 116.8-28.6 174.1-43.9 27.2-7.2 56.4-19.9 84.2-23.4 73.5-9.3 183 18.9 227.4-17.5 18.5-15.1 35.4-51.9 48.2-78.6 3.8-7.9 18.7-31.7 16.4-44.2-3.2-17.5-12.7-26.9-30.9-23.4-25.2 4.8-35.6 65.6-53.3 79z"  horiz-adv-x="1024" />

    
    <glyph glyph-name="yaojike" unicode="&#59070;" d="M511.3 382.9m-447.1 0a447.1 447.1 0 1 1 894.2 0 447.1 447.1 0 1 1-894.2 0ZM588.7 198.6L556 231.3l121.5 129.2 32.7-32.7-121.5-129.2zM299.8 314.5l249.1 256.9c15 15.4 34.8 23.9 56 23.9 21.2 0 41-8.5 56-23.9 15-15.4 23.2-35.9 23.2-57.7 0-21.8-8.2-42.3-23.2-57.7L533.2 324.2 456.6 413s-75.9-82.2-132.9-137c-24.1-23.2-32.5-45.7-34.2-63.9-8.4 13.2-12.9 28.6-12.9 44.7 0 21.7 8.2 42.2 23.2 57.7z m393.9 105.7L613 336.9l80.9 83.5c48.7 50.2 48.7 131.7 0 181.9-24.4 25.1-56.3 37.7-88.2 37.7-31.9 0-63.9-12.6-88.2-37.7L268.4 345.4c-48.7-50.2-48.7-131.7 0-181.9 24.4-25.1 56.3-37.7 88.2-37.7 31.9 0 63.8 12.6 88.2 37.7l60.5 62.4c20.5-58.3 74.6-100.1 138.2-100.1 81.3 0 147.2 68 147.2 151.8 0.1 65.6-40.4 121.4-97 142.6z"  horiz-adv-x="1024" />

    
    <glyph glyph-name="yufangbaojianke" unicode="&#59071;" d="M511.8 384.7m-447.6 0a447.6 447.6 0 1 1 895.2 0 447.6 447.6 0 1 1-895.2 0ZM370.5 569.9a81.9 81.7 90 1 1 163.4 0 81.9 81.7 90 1 1-163.4 0ZM609.5 314.5a81.9 81.7 90 1 1 163.4 0 81.9 81.7 90 1 1-163.4 0ZM363.6 307.2l42 78.3 74.8-78.3H363.6z m454.3-67.1c-14.4 25.7-38.1 8.6-38.1 8.6l-95.2-55.3L392.5 477s-43.3 57.3-88-22.4C266.4 386.8 209.3 271 209.3 271s-25.6-86.9 86.7-86.9h304.1l50.4-48.1s17.7-21.1 48.6-3.3c39 22.5 114.9 71.7 114.9 71.7s18.3 10 3.9 35.7z"  horiz-adv-x="1024" />

    
    <glyph glyph-name="yingxiangke" unicode="&#59072;" d="M511.9 381.3m-445.5 0a445.5 445.5 0 1 1 891 0 445.5 445.5 0 1 1-891 0ZM441.8 578.7a69.7 64.5 0 1 1 139.4 0 69.7 64.5 0 1 1-139.4 0ZM349.9 471.5c-1.7 0-3.1-1.3-3.1-2.8v-188.4c0-1.6 1.4-2.8 3.1-2.8h320.8c1.7 0 3.1 1.3 3.1 2.8V468.6c0 1.6-1.4 2.8-3.1 2.8H349.9zM670.7 249H349.9c-18.6 0-33.8 14-33.8 31.2V468.6c0 17.2 15.1 31.2 33.8 31.2h320.8c18.6 0 33.8-14 33.8-31.2v-188.4c-0.1-17.2-15.2-31.2-33.8-31.2zM407.6 236.7v-115h99.8v59.7h11.5v-59.7h99.8v115zM420.1 381v30.6h183.5v-31.2s34.4 1.1 34.4 31.2-30.7 31.2-30.7 31.2H420.1s-33.1 0-33.1-28.9c-0.1-26.1 26.3-32.9 33.1-32.9zM624.1 379.9c-9.9-4.7-19.8-5.1-20.3-5.1l-7.6-0.3v21.2H427.4v-20.4H420c-5.8 0-17.2 2.8-26.4 10.1-4-4.2-6.8-10.2-6.8-18.6 0-26.1 26.4-32.9 33.1-32.9v30.6h183.5v-31.2s34.4 1.1 34.4 31.2c0 8.8-2.7 15.2-6.4 19.7-2.3-1.8-4.9-3.2-7.3-4.3zM624.1 333.3c-9.9-4.7-19.8-5.1-20.3-5.1l-7.6-0.3v21.2H427.4v-20.4H420c-5.8 0-17.2 2.8-26.4 10.1-4-4.2-6.8-10.2-6.8-18.6 0-26.1 26.4-32.9 33.1-32.9V318h183.5v-31.2s34.4 1.1 34.4 31.2c0 8.8-2.7 15.2-6.4 19.7-2.3-1.8-4.9-3.2-7.3-4.4zM491.9 452.5h41.7v-156.6h-41.7z"  horiz-adv-x="1024" />

    
    <glyph glyph-name="zhongyike" unicode="&#59073;" d="M511.8 383.8m-447.6 0a447.6 447.6 0 1 1 895.2 0 447.6 447.6 0 1 1-895.2 0ZM693.7 486.5L653.1 450c35.4-6.1 57.3-14.4 57.3-23.5 0-18.7-91.1-33.8-203.4-33.8s-203.4 15.2-203.4 33.8c0 13.3 46.4 24.8 113.7 30.3l54.1 49.7C346.7 501 251 470.5 251 434.9c0-26.6-2.4-176.5 123-232.1v-41.1s37.8-26.6 137.2-26.6 137.2 26.6 137.2 26.6v41.1s123 55.6 123 232.1c-0.1 20.2-29.8 38.5-77.7 51.6zM444.4 430.1h138.3l123 142.6s14.2 35.1-9.5 52c-23.6 16.9-46.1 2.4-46.1 2.4l-205.7-197z"  horiz-adv-x="1024" />

    
    <glyph glyph-name="waike" unicode="&#59074;" d="M511.3 384.6m-448 0a448 448 0 1 1 896 0 448 448 0 1 1-896 0ZM773 527.9s0 70-61.4 80.3c-33.5-22-56.5-39.1-110.2-57.6l7.7 17.8s6.3 13-8.4 18.5c-11.2 4.8-18.8-5.5-18.8-5.5L443.8 307.7l25.8-11.7 76 145.4s41.9-26.8 11.2-50.8c-30.7-24-76.7-48-61.4-69.3 15.3-21.3 37-3.4 46.7 1.4 9.8 4.8 60.7 24.7 97 51.4 36.3 26.8 61.4 56.3 76 90.5 14.7 34.5 14.7 29.7 57.9 63.3zM545.6 536.1s-37 6.9-53.7-22.6c-16.7-29.5-106-207.2-106-207.2s-8.4-19.9 4.9-28.8c13.3-8.9 16-7.5 16-7.5l138.8 266.1zM438.9 299.5l-58.6-116.6s30-4.1 49.5 31.6 37.7 70.7 37.7 70.7l-28.6 14.3zM246.3 173.9H404v-12.3H246.3zM535.5 173.9h21v-12.3h-21zM573.3 173.9h21v-12.3h-21zM611 173.9h21v-12.3h-21zM497.7 173.9h21v-12.3h-21zM460 173.9h21v-12.3h-21zM422.2 173.9h21v-12.3h-21z"  horiz-adv-x="1024" />

    
    <glyph glyph-name="quanke" unicode="&#59075;" d="M511.8 384.2m-447.5 0a447.5 447.5 0 1 1 895 0 447.5 447.5 0 1 1-895 0ZM551.4 641.5h-79.5c-42.2 0-76.6-34.5-76.6-77v-10.7h43v10.7c0 18.6 15 33.7 33.5 33.7h79.5c18.5 0 33.5-15.1 33.5-33.7v-10.7h43v10.7c0.2 42.5-34.2 77-76.4 77M706.4 541.5H317c-40.7 0-73.8-33.2-73.8-74.2v-263.7c0-41 33-74.2 73.8-74.2h389.4c40.7 0 73.8 33.2 73.8 74.2V467.3c-0.1 41-33.1 74.2-73.8 74.2M511.7 211C443.4 211 388 266.7 388 335.4s55.4 124.4 123.7 124.4 123.7-55.7 123.7-124.4S580 211 511.7 211M582.8 355.4h-51.3V407c0 1.5-1.2 2.7-2.7 2.7h-34.4c-1.5 0-2.7-1.2-2.7-2.7v-51.5h-51.3c-1.5 0-2.7-1.2-2.7-2.7v-34.6c0-1.5 1.2-2.7 2.7-2.7h51.3V264c0-1.5 1.2-2.7 2.7-2.7h34.4c1.5 0 2.7 1.2 2.7 2.7v51.5h51.3c1.5 0 2.7 1.2 2.7 2.7v34.6c0 1.4-1.2 2.6-2.7 2.6"  horiz-adv-x="1024" />

    
    <glyph glyph-name="erke" unicode="&#59076;" d="M511.8 384.6m-447.6 0a447.6 447.6 0 1 1 895.2 0 447.6 447.6 0 1 1-895.2 0ZM430.9 577.8a70.7 68.6 0 1 1 141.4 0 70.7 68.6 0 1 1-141.4 0ZM612.6 341.4c0 76.4-47.1 143.5-103.2 143.5s-100-67.2-100-143.5c0-4.7 0.2-9.4 0.5-14 1.4-18.6 201-17.9 202.3 1.1 0.3 4.3 0.4 8.6 0.4 12.9zM518.6 482.5l-24-37.5-115.5-114.4c-11.7-11.5-30.5-11.8-41.9-0.5-11.4 11.3-11.1 29.9 0.5 41.5l94.4 93.4c20.3 16.1 75.2 28.8 86.5 17.5zM501.6 482.5l24-37.5 115.6-114.4c11.7-11.5 30.5-11.8 41.9-0.5 11.4 11.3 11.1 29.9-0.5 41.5L588.2 465c-20.4 16.1-75.2 28.8-86.6 17.5zM547.7 131.9c-9.7 9.4-9.5 25 0.5 34.7l80.6 78.2c10 9.7 26.1 9.9 35.8 0.4 9.7-9.4 9.5-25-0.5-34.7l-80.6-78.2c-10-9.7-26.1-9.8-35.8-0.4zM556.9 260l45.8 44.4 65.5-63.6-62.9-27.8zM466.6 130.2c9.7 9.4 9.5 25-0.5 34.7l-80.6 78.2c-10 9.7-26.1 9.9-35.8 0.4-9.7-9.4-9.5-25 0.5-34.7l80.6-78.2c10-9.6 26.1-9.8 35.8-0.4zM457.4 258.4l-45.8 44.4-61.4-59.6 58.8-31.8z"  horiz-adv-x="1024" />

    
    <glyph glyph-name="zhongliuke" unicode="&#59077;" d="M512.3 384.1m-448.1 0a448.1 448.1 0 1 1 896.2 0 448.1 448.1 0 1 1-896.2 0ZM686.9 265.4c-4.6-1.7-10.1-2.6-16.3-2.6-14.3 0-30.3 4.7-42.8 12.5-13.1 8.1-29.2 23.6-31.9 50.6-1.2 12.6-5.7 21.3-13.4 26-5.7 3.5-11.5 3.8-11.5 3.8v0.3c-8.2 0.1-14.7 6.7-14.7 14.8 0 8.9 8.3 15.8 16.9 14.6 17.1-0.7 48-13.4 52.3-56.6 1.2-12.1 7.3-21.6 18-28.3 9.5-5.9 20.2-8 27.1-8 3.5 0 5.2 0.5 5.8 0.7 7.5 2.8 16.4-1.3 19.2-8.7 2.9-7.6-1-16.2-8.7-19.1z m-155.4-73.1c-12.9 0-23.4 10.5-23.4 23.3 0 12.9 10.5 23.4 23.4 23.4 12.9 0 23.3-10.5 23.3-23.4 0-12.9-10.4-23.3-23.3-23.3z m-54.7 312.6c-11.8 0-22.7 4.4-39 15.8-5.6 3.9-16.5 5.6-30 4.6-11.8-0.9-21.5-3.5-21.6-3.6-8-2.1-16.2 2.7-18.3 10.4-1 3.8-0.5 7.8 1.4 11.3 2 3.5 5.2 5.9 9 7 3 0.8 18.9 5 36.9 5 16.5 0 29.9-3.5 39.7-10.3 12.4-8.7 18-10.5 22.5-10.5 3.1 0 6.2 0.8 10.5 2 7.7 2.1 11.7 6.6 18.4 14.1 2.5 2.8 5.3 6 8.5 9.2 13.9 13.9 35.8 15.9 47.6 15.9 6.5 0 12.8-0.6 18.2-1.7 8-1.7 13.2-9.6 11.6-17.6-1.6-7.9-9.7-13.1-17.6-11.6-3.6 0.8-7.8 1.2-12.1 1.2-11.8 0-22.2-2.8-26.6-7.2-2.5-2.5-4.8-5.1-7-7.6-8.1-9.1-16.9-19.1-33.3-23.5-7.7-2-13.4-2.9-18.8-2.9z m-51.5-92.8c-12.9 0-23.4 10.5-23.4 23.4 0 12.9 10.5 23.3 23.4 23.3 12.9 0 23.3-10.5 23.3-23.3 0-12.9-10.4-23.4-23.3-23.4z m17.3-167c-2.3-5.7-7.7-9.4-13.8-9.4-1.9 0-3.7 0.4-5.5 1.1-28.9 11.5-38.2 47.4-45.6 76.3-2.6 10.2-5.1 19.8-7.9 25.9-3.8 8.4-8.4 13.2-13.7 14.1-1.8 0.3-3.4 0.2-5-0.1-2.4-1.4-5.1-2.2-7.8-2.2-8.5 0-15.3 6.9-15.3 15.3 0 8 6.1 14.6 14 15.3 8.7 2.4 18 2.2 26.4-0.8 12.3-4.5 21.9-14.3 28.7-29.3 3.8-8.4 6.6-19.2 9.5-30.6 5.8-22.5 12.9-50.3 27.8-56.1 3.7-1.5 6.6-4.3 8.2-7.9 1.4-3.9 1.5-7.9 0-11.6z m218.6 261.8c12.9 0 23.4-10.5 23.4-23.3 0-12.9-10.5-23.4-23.4-23.4-12.9 0-23.3 10.5-23.3 23.4-0.1 12.8 10.4 23.3 23.3 23.3z m-148.9 146c-148.5 0-268.8-120.4-268.8-268.8s120.4-268.8 268.8-268.8 268.8 120.4 268.8 268.8-120.3 268.8-268.8 268.8z"  horiz-adv-x="1024" />

    
    <glyph glyph-name="xinlizixun" unicode="&#59078;" d="M511.3 383.8m-448 0a448 448 0 1 1 896 0 448 448 0 1 1-896 0ZM554 397.1l-12.1-9c-15-11.2-20.6-15.4-26.8-21.4-1-1-2.4-1.6-3.8-1.6s-2.8 0.6-3.8 1.6c-4.7 4.6-9 7.8-17.6 14.3-5.5 4.1-12.2 9.1-21.3 16.2-24.2 18.7-57.2 44.4-57.2 81.1 0 35.7 27.7 55 53.7 55 17.6 0 33.9-8.1 46.2-22.8 12.3 14.7 28.7 22.8 46.3 22.8 26 0 53.7-19.2 53.7-54.6 0-38.7-37.3-66.6-57.3-81.6z m20.8 255.5h-127c-113.2 0-205.3-87.8-205.3-195.7v-319.6c0-12.3 10.1-22.3 22.6-22.3 9 0 9 0 30.3 19.8l136.3 126.9c3.4-0.3 6.8-0.4 10.2-0.6H581.3c111.5 3.3 198.8 89.3 198.8 195.6 0 108.1-92.1 195.9-205.3 195.9z"  horiz-adv-x="1024" />

    


  </font>
</defs>
</svg>
